<?xml version="1.0" encoding="UTF-8"?>
<svg width="24px" height="24px" viewBox="0 0 24 24" version="1.1" xmlns="http://www.w3.org/2000/svg" xmlns:xlink="http://www.w3.org/1999/xlink">
    <title>icon@3x</title>
    <defs>
        <polygon id="path-1" points="1.77635684e-15 0 5.9998 0 5.9998 6 1.77635684e-15 6"></polygon>
    </defs>
    <g id="Page-1" stroke="none" stroke-width="1" fill="none" fill-rule="evenodd">
        <g id="详情页" transform="translate(-339.000000, -235.000000)">
            <g id="编组-2" transform="translate(339.000000, 235.000000)">
                <rect id="矩形" fill="#000000" opacity="0.400000006" x="0" y="0" width="24" height="24" rx="3"></rect>
                <g id="编组" transform="translate(2.000000, 2.000000)">
                    <path d="M1,6 C0.448,6 0,5.552 0,5 L0,2.778 C0,1.246 1.246,0 2.778,0 L5,0 C5.552,0 6,0.448 6,1 C6,1.552 5.552,2 5,2 L2.778,2 C2.349,2 2,2.349 2,2.778 L2,5 C2,5.552 1.552,6 1,6" id="Fill-1" fill="#FFFFFF"></path>
                    <path d="M5,20 L2.778,20 C1.246,20 0,18.754 0,17.222 L0,15 C0,14.448 0.448,14 1,14 C1.552,14 2,14.448 2,15 L2,17.222 C2,17.651 2.349,18 2.778,18 L5,18 C5.552,18 6,18.448 6,19 C6,19.552 5.552,20 5,20" id="Fill-3" fill="#FFFFFF"></path>
                    <path d="M19,6 C18.448,6 18,5.552 18,5 L18,2.778 C18,2.349 17.651,2 17.222,2 L15,2 C14.448,2 14,1.552 14,1 C14,0.448 14.448,0 15,0 L17.222,0 C18.754,0 20,1.246 20,2.778 L20,5 C20,5.552 19.552,6 19,6" id="Fill-5" fill="#FFFFFF"></path>
                    <g transform="translate(14.000200, 14.000000)">
                        <mask id="mask-2" fill="white">
                            <use xlink:href="#path-1"></use>
                        </mask>
                        <g id="Clip-8"></g>
                        <path d="M3.222,6 L1,6 C0.448,6 1.77635684e-15,5.552 1.77635684e-15,5 C1.77635684e-15,4.448 0.448,4 1,4 L3.222,4 C3.651,4 4,3.651 4,3.222 L4,1 C4,0.448 4.448,0 5,0 C5.552,0 6,0.448 6,1 L6,3.222 C6,4.754 4.754,6 3.222,6" id="Fill-7" fill="#FFFFFF" mask="url(#mask-2)"></path>
                    </g>
                </g>
            </g>
        </g>
    </g>
</svg>